<?xml version="1.0" encoding="utf-8"?>
<!-- Generator: Adobe Illustrator 25.2.3, SVG Export Plug-In . SVG Version: 6.00 Build 0)  -->
<svg version="1.1" id="Layer_1" xmlns="http://www.w3.org/2000/svg" xmlns:xlink="http://www.w3.org/1999/xlink" x="0px" y="0px"
	 viewBox="0 0 1044.7 85.7" style="enable-background:new 0 0 1044.7 85.7;" xml:space="preserve">
<path d="M0,16.1h35c-1.8,3.4-2.7,7.1-2.7,10.9v55.5H47V26.4c0-5.7,4.6-10.3,10.3-10.3c0,0,0,0,0,0h22V3.2H0V16.1z"/>
<path d="M249.6,2.6h-23.8c-15.1,0-27.4,12.3-27.4,27.4c0,0,0,0,0,0v52.5h14V55.4H263v27.1h14V30C277,14.9,264.8,2.6,249.6,2.6
	C249.6,2.6,249.6,2.6,249.6,2.6z M263,42.9h-50.6V29.6c0-7.9,6.4-14.3,14.3-14.3h22c7.9,0,14.3,6.4,14.3,14.3V42.9z"/>
<path d="M696.1,25.9c0-12.6-10.2-22.8-22.8-22.8h-56.6v79.4h56.6c12.6,0,22.8-10.2,22.8-22.7c0-6.5-2.7-12.6-7.5-16.9
	C693.3,38.5,696.1,32.4,696.1,25.9z M671.6,70.6h-41.3V48.7h41.3c6.1-0.5,11.4,4,11.8,10.1s-4,11.4-10.1,11.8
	C672.8,70.7,672.2,70.7,671.6,70.6z M671.6,37h-41.3V15.1h41.3c6.1-0.5,11.4,4,11.8,10.1s-4,11.4-10.1,11.8
	C672.8,37.1,672.2,37.1,671.6,37z"/>
<rect x="715.1" y="3.2" width="14.6" height="79.4"/>
<rect x="838.8" y="3.2" width="14.6" height="79.4"/>
<path d="M764,65.9V3.2h-14.8v62.7c0,9.2,7.5,16.7,16.7,16.7H823V69.2h-55.6C765.5,69.3,764,67.8,764,65.9
	C764,65.9,764,65.9,764,65.9z"/>
<polygon points="870.5,16.1 902.9,16.1 902.9,82.6 917.4,82.6 917.4,16.1 949.8,16.1 949.8,3.2 870.5,3.2 "/>
<path d="M1030.5,3.2v40.1h-48.4c-1.9,0-3.4-1.5-3.4-3.4c0,0,0,0,0,0V3.2h-14.6v36.7c0,9.2,7.5,16.7,16.7,16.7h49.7v26h14.2V3.2
	H1030.5z"/>
<path d="M347.7,3.2h-51.2v79.4h13.9V55.4h37.3c14.4,0.3,26.4-11.2,26.6-25.6c0.3-14.4-11.2-26.4-25.6-26.6
	C348.4,3.2,348,3.2,347.7,3.2z M346.5,42.9h-36.1V15.7h36.1c7.5,0,13.6,6.1,13.6,13.6S354,42.9,346.5,42.9L346.5,42.9z"/>
<path d="M154.4,2c-7.1,0-13.8,2.9-18.7,8.1C126-0.3,109.7-0.7,99.3,9c-5.1,4.9-8.1,11.6-8.1,18.7v54.8h14.1V26.7
	c-0.2-6.4,4.9-11.8,11.3-12c6.4-0.2,11.8,4.9,12,11.3c0,0.2,0,0.5,0,0.7v55.9h14.1V26.7c0-6.4,5.2-11.7,11.7-11.7
	c6.4,0,11.6,5.2,11.7,11.7v55.9h14.1V27.7C180.2,13.5,168.6,2,154.4,2z"/>
<path d="M476.7,2c-7.1,0-13.8,2.9-18.7,8.1c-9.8-10.3-26.1-10.8-36.4-1c-5.1,4.9-8.1,11.6-8.1,18.7v54.8h14.1V26.7
	c0-6.4,5.2-11.7,11.7-11.7S451,20.2,451,26.7v55.9h14V26.7c0-6.4,5.2-11.7,11.7-11.7s11.7,5.2,11.7,11.7v55.9h14.1V27.7
	C502.4,13.5,490.9,2,476.7,2z"/>
<path d="M559.2,0c-23.7,0-42.9,19.2-42.9,42.8c0,23.7,19.2,42.9,42.8,42.9c23.7,0,42.9-19.2,42.9-42.8c0,0,0,0,0,0
	C602,19.2,582.8,0,559.2,0z M559.2,72.6c-16.7,0-28.6-13.3-28.6-29.8s11.9-29.8,28.6-29.8s28.6,13.3,28.6,29.8
	S575.9,72.6,559.2,72.6z"/>
</svg>
